<svg t="1712219371101" class="icon" viewBox="0 0 1024 1024" version="1.1" xmlns="http://www.w3.org/2000/svg" p-id="15794" width="200" height="200"><path d="M924.6 506.2c2.2-19.9-0.4-40.6-7-60.9-6.4-19.7-16.3-37.1-28.9-52-39.3-46.4-104.1-67-165.5-47.1-2.8 0.9-5.4 2-8.1 3.1 0.2-2.9 0.4-5.7 0.4-8.7 0-85.2-69.1-154.3-154.3-154.3s-154.3 69.1-154.3 154.3c0 2.9 0.3 5.8 0.4 8.7-2.7-1-5.3-2.2-8.1-3.1-81.1-26.3-168.1 18-194.5 99.1-26.3 81.1 18 168.1 99.1 194.5 2.8 0.9 5.6 1.5 8.4 2.3-1.8 2.2-3.7 4.4-5.4 6.7-50.1 69-34.8 165.5 34.1 215.6 69 50.1 165.5 34.8 215.6-34.1 1.7-2.4 3.2-4.8 4.7-7.3 1.6 2.4 3 4.9 4.7 7.3 50.1 69 146.6 84.2 215.6 34.1s84.2-146.6 34.1-215.6c-1.7-2.4-3.6-4.5-5.4-6.7 2.8-0.7 5.6-1.4 8.4-2.3 6.6-2.1 12.9-4.7 19-7.6-0.2 0 77-34.1 87-126z" fill="#FFF5C5" p-id="15795"></path><path d="M347 899c-37.2 0-74.7-11.3-107-34.8-76.9-55.9-97.3-161.1-49.4-241.2-85.8-36.6-131.1-133.7-101.8-224.1 29.4-90.4 123.1-142.3 214.1-121.5 8.3-93 86.6-166.1 181.7-166.1S658 184.4 666.3 277.4c30.4-7 61.8-6 91.9 2.8 34.5 10.1 64.9 29.9 88 57.2 15.3 18.1 26.8 38.8 34.2 61.5 7.6 23.4 10.4 47.6 8.3 72-0.9 10.4-10 18-20.4 17.1-10.4-0.9-18-10-17.1-20.4 1.7-19.3-0.6-38.5-6.6-57.1-5.9-18-15-34.4-27.1-48.8-38.2-45.1-99.1-62.4-155.3-44.2-1.5 0.5-3.1 1.1-4.9 1.8-0.9 0.4-1.8 0.7-2.7 1.1-6 2.3-12.7 1.4-17.9-2.3-5.2-3.8-8.1-9.9-7.7-16.3 0.1-1 0.1-2 0.2-2.9 0.1-1.9 0.2-3.6 0.2-5.2 0-79.8-64.9-144.8-144.8-144.8s-144.8 64.9-144.8 144.8c0 1.5 0.1 3.3 0.2 5.2 0.1 1 0.1 2 0.2 2.9 0.4 6.4-2.6 12.5-7.7 16.3-5.2 3.8-11.9 4.6-17.9 2.3-0.9-0.4-1.8-0.7-2.7-1.1-1.7-0.7-3.4-1.4-4.9-1.8-75.9-24.7-157.8 17-182.4 93-24.7 75.9 17 157.8 93 182.4 1.5 0.5 3.2 0.9 5 1.4 0.9 0.2 1.9 0.5 2.8 0.7 6.2 1.6 11.1 6.3 13.1 12.4 2 6.1 0.7 12.8-3.3 17.7-0.6 0.8-1.3 1.5-1.9 2.3-1.2 1.4-2.3 2.8-3.2 4-46.9 64.6-32.6 155.3 32 202.2 64.6 46.9 155.3 32.6 202.2-32 0.9-1.2 1.9-2.8 2.9-4.3 0.5-0.8 1-1.7 1.6-2.5 3.5-5.4 9.4-8.6 15.8-8.6s12.4 3.3 15.8 8.6c0.5 0.8 1.1 1.7 1.6 2.5 1 1.6 1.9 3.1 2.9 4.4 46.9 64.6 137.6 79 202.2 32 64.6-46.9 79-137.6 32-202.2-0.9-1.2-2-2.6-3.3-4.1-0.6-0.8-1.3-1.5-1.9-2.3-4-5-5.3-11.6-3.3-17.7s6.9-10.8 13.1-12.4c0.9-0.3 1.9-0.5 2.8-0.7 1.8-0.5 3.6-0.9 5-1.4 6.1-2 12.1-4.4 17.8-7.1 9.4-4.5 20.6-0.5 25.1 8.9s0.5 20.6-8.9 25.1c-2.3 1.1-4.7 2.2-7.1 3.2 47.9 80.1 27.5 185.3-49.4 241.2-32.3 23.5-69.8 34.8-107 34.8-51.3 0-102-21.5-137.6-62.3-35.3 40.7-86 62.3-137.4 62.3z" fill="#E22B60" p-id="15796"></path><path d="M484.7 515.2c-15.2 0-27.6 12.4-27.6 27.6 0 15.2 12.4 27.6 27.6 27.6s27.6-12.4 27.6-27.6c-0.1-15.2-12.4-27.6-27.6-27.6z m0-108.1c-7.8 0-14.1-6.3-14.1-14.1v-56.4c0-7.8 6.3-14.1 14.1-14.1s14.1 6.3 14.1 14.1V393c0 7.7-6.3 14.1-14.1 14.1z m-146.4 99.6c-1.4 0-2.9-0.2-4.4-0.7l-53.7-17.4c-7.4-2.4-11.5-10.4-9.1-17.8 2.4-7.4 10.4-11.5 17.8-9.1l53.7 17.4c7.4 2.4 11.5 10.4 9.1 17.8-1.9 6-7.4 9.8-13.4 9.8z m16.4 215.6c-2.9 0-5.8-0.9-8.3-2.7-6.3-4.6-7.7-13.4-3.1-19.7l33.2-45.7c4.6-6.3 13.4-7.7 19.7-3.1 6.3 4.6 7.7 13.4 3.1 19.7l-33.2 45.7c-2.7 3.8-7 5.8-11.4 5.8z m243.3 5.4c-4.4 0-8.7-2-11.4-5.8l-33.2-45.7c-4.6-6.3-3.2-15.1 3.1-19.7 6.3-4.6 15.1-3.2 19.7 3.1l33.2 45.7c4.6 6.3 3.2 15.1-3.1 19.7-2.5 1.9-5.4 2.7-8.3 2.7z m26.6-212.3c-6 0-11.5-3.8-13.4-9.8-2.4-7.4 1.6-15.4 9.1-17.8l53.7-17.4c7.4-2.4 15.4 1.6 17.8 9.1 2.4 7.4-1.6 15.4-9.1 17.8L629 514.7c-1.4 0.5-2.9 0.7-4.4 0.7z m213.7 50.7c-4.8 0-9.7-1.9-13.4-5.6-7.3-7.4-7.3-19.3 0.1-26.6l3.1-3.1c7.4-7.3 19.3-7.3 26.6 0.1 7.3 7.4 7.3 19.3-0.1 26.6l-3.1 3.1c-3.6 3.6-8.4 5.5-13.2 5.5z" fill="#E22B60" p-id="15797"></path></svg>